<?xml version="1.0" encoding="UTF-8" standalone="no"?>
<!-- Created with Inkscape (http://www.inkscape.org/) -->

<svg
   xmlns:dc="http://purl.org/dc/elements/1.1/"
   xmlns:cc="http://creativecommons.org/ns#"
   xmlns:rdf="http://www.w3.org/1999/02/22-rdf-syntax-ns#"
   xmlns:svg="http://www.w3.org/2000/svg"
   xmlns="http://www.w3.org/2000/svg"
   xmlns:sodipodi="http://sodipodi.sourceforge.net/DTD/sodipodi-0.dtd"
   xmlns:inkscape="http://www.inkscape.org/namespaces/inkscape"
   width="48pt"
   height="48pt"
   viewBox="0 0 16.933334 16.933333"
   version="1.1"
   id="svg979"
   inkscape:version="0.92.4 (5da689c313, 2019-01-14)"
   sodipodi:docname="23 - Onion.svg"
   inkscape:export-filename="E:\TR Design Studio Creative\Project Design\TR Creative Design\Icon Design\Project Hiring\Icon Icons\Project - 001\001 - Agriculture And Farming\Filled Line\Export\23 - Onion.png"
   inkscape:export-xdpi="768"
   inkscape:export-ydpi="768">
  <defs
     id="defs973" />
  <sodipodi:namedview
     id="base"
     pagecolor="#ffffff"
     bordercolor="#666666"
     borderopacity="1.0"
     inkscape:pageopacity="0.0"
     inkscape:pageshadow="2"
     inkscape:zoom="4.2734375"
     inkscape:cx="31.889908"
     inkscape:cy="34.753721"
     inkscape:document-units="pt"
     inkscape:current-layer="layer1"
     showgrid="false"
     units="pt"
     inkscape:window-width="1366"
     inkscape:window-height="716"
     inkscape:window-x="-8"
     inkscape:window-y="-8"
     inkscape:window-maximized="1"
     inkscape:snap-bbox="true"
     inkscape:bbox-nodes="true"
     inkscape:snap-nodes="false"
     showguides="false"
     inkscape:snap-global="true">
    <inkscape:grid
       type="xygrid"
       id="grid1526" />
    <sodipodi:guide
       position="0.97013909,15.963209"
       orientation="56.666615,0"
       id="guide1528"
       inkscape:locked="false" />
    <sodipodi:guide
       position="0.97013909,0.97016731"
       orientation="0,56.666667"
       id="guide1530"
       inkscape:locked="false" />
    <sodipodi:guide
       position="15.963195,0.97016731"
       orientation="-56.666615,0"
       id="guide1532"
       inkscape:locked="false" />
    <sodipodi:guide
       position="15.963195,15.963209"
       orientation="0,-56.666667"
       id="guide1534"
       inkscape:locked="false" />
  </sodipodi:namedview>
  <metadata
     id="metadata976">
    <rdf:RDF>
      <cc:Work
         rdf:about="">
        <dc:format>image/svg+xml</dc:format>
        <dc:type
           rdf:resource="http://purl.org/dc/dcmitype/StillImage" />
        <dc:title></dc:title>
      </cc:Work>
    </rdf:RDF>
  </metadata>
  <g
     inkscape:label="Layer 1"
     inkscape:groupmode="layer"
     id="layer1"
     transform="translate(0,-280.06668)">
    <g
       id="g3974"
       transform="matrix(1.239727,0,0,1.239727,-2.6629304,-69.610579)"
       style="stroke-width:0.80662918">
      <g
         inkscape:export-ydpi="826.16193"
         inkscape:export-xdpi="826.16193"
         id="g2293"
         style="display:inline;stroke-width:0.80662918"
         transform="translate(2.6276325,-45.787736)">
        <path
           style="color:#000000;font-style:normal;font-variant:normal;font-weight:normal;font-stretch:normal;font-size:medium;line-height:normal;font-family:sans-serif;font-variant-ligatures:normal;font-variant-position:normal;font-variant-caps:normal;font-variant-numeric:normal;font-variant-alternates:normal;font-feature-settings:normal;text-indent:0;text-align:start;text-decoration:none;text-decoration-line:none;text-decoration-style:solid;text-decoration-color:#000000;letter-spacing:normal;word-spacing:normal;text-transform:none;writing-mode:lr-tb;direction:ltr;text-orientation:mixed;dominant-baseline:auto;baseline-shift:baseline;text-anchor:start;white-space:normal;shape-padding:0;clip-rule:nonzero;display:inline;overflow:visible;visibility:visible;opacity:1;isolation:auto;mix-blend-mode:normal;color-interpolation:sRGB;color-interpolation-filters:linearRGB;solid-color:#000000;solid-opacity:1;vector-effect:none;fill:#b557a1;fill-opacity:1;fill-rule:nonzero;stroke:none;stroke-width:0.42684126;stroke-linecap:round;stroke-linejoin:round;stroke-miterlimit:4;stroke-dasharray:none;stroke-dashoffset:0;stroke-opacity:1;color-rendering:auto;image-rendering:auto;shape-rendering:auto;text-rendering:auto;enable-background:accumulate"
           d="m 7.5527344,329.21289 a 0.26460978,0.26460978 0 0 0 -0.265625,0.26563 v 1.26367 c -6e-7,0.22378 -0.1971635,0.5059 -0.5664063,0.84765 -0.3692427,0.34176 -0.876228,0.72631 -1.3574219,1.19532 a 0.26460978,0.26460978 0 0 0 0.1171876,0.44531 c 0.1363743,0.0365 0.4461802,0.20968 0.6894531,0.37305 0.2324775,0.15611 0.3999803,0.28834 0.4160156,0.30078 0.6904034,0.79207 1.116157,1.42646 1.1132813,2.20898 a 0.26460978,0.26460978 0 0 0 0,0.0176 c 0.056833,0.96518 -0.4370878,1.53716 -1.1171876,2.11133 a 0.26460978,0.26460978 0 0 0 -0.083984,0.27148 C 6.5438218,338.68451 6.34375,338.9082 6.34375,338.9082 a 0.26460978,0.26460978 0 0 0 0.1210938,0.44922 c 0.1254352,0.0294 0.2578126,0.0542 0.3945312,0.0762 0.1617555,0.21476 0.3437314,0.42514 0.5644531,0.50196 0.2959393,0.10299 0.5761254,0.12675 0.7382813,0.12695 a 0.26460978,0.26460978 0 0 0 0.00195,0 c 0.1625915,0 0.4423259,-0.0239 0.7382813,-0.12695 0.2223935,-0.0774 0.4085472,-0.28622 0.5703124,-0.50391 1.1676339,-0.18975 1.9288909,-0.66372 2.3671879,-1.32226 0.441462,-0.66331 0.55664,-1.47464 0.55664,-2.31446 0.0039,-1.52556 -0.907968,-2.55092 -1.765625,-3.3164 -0.428828,-0.38275 -0.8470896,-0.70875 -1.144531,-1.00196 -0.2974413,-0.29321 -0.4472665,-0.53606 -0.4472656,-0.73437 v -1.26367 a 0.26460978,0.26460978 0 0 0 -0.265625,-0.26563 z"
           id="path2082"
           inkscape:connector-curvature="0"
           inkscape:export-xdpi="826.16193"
           inkscape:export-ydpi="826.16193" />
        <path
           style="color:#000000;font-style:normal;font-variant:normal;font-weight:normal;font-stretch:normal;font-size:medium;line-height:normal;font-family:sans-serif;font-variant-ligatures:normal;font-variant-position:normal;font-variant-caps:normal;font-variant-numeric:normal;font-variant-alternates:normal;font-feature-settings:normal;text-indent:0;text-align:start;text-decoration:none;text-decoration-line:none;text-decoration-style:solid;text-decoration-color:#000000;letter-spacing:normal;word-spacing:normal;text-transform:none;writing-mode:lr-tb;direction:ltr;text-orientation:mixed;dominant-baseline:auto;baseline-shift:baseline;text-anchor:start;white-space:normal;shape-padding:0;clip-rule:nonzero;display:inline;overflow:visible;visibility:visible;opacity:1;isolation:auto;mix-blend-mode:normal;color-interpolation:sRGB;color-interpolation-filters:linearRGB;solid-color:#000000;solid-opacity:1;vector-effect:none;fill:#853e6e;fill-opacity:1;fill-rule:nonzero;stroke:none;stroke-width:1.61325836;stroke-linecap:round;stroke-linejoin:round;stroke-miterlimit:4;stroke-dasharray:none;stroke-dashoffset:0;stroke-opacity:1;color-rendering:auto;image-rendering:auto;shape-rendering:auto;text-rendering:auto;enable-background:accumulate"
           d="m 22.765625,181.00977 c -0.814023,0.69271 -1.661692,1.43081 -2.494141,2.24218 a 1.0001,1.0001 0 0 0 0.441407,1.68164 c 0.51543,0.13796 1.687965,0.7927 2.607421,1.41016 0.878656,0.59002 1.51166,1.0897 1.572266,1.13672 2.609399,2.99365 4.2179,5.39205 4.207031,8.34961 a 1.0001,1.0001 0 0 0 0,0.0664 c 0.214802,3.64793 -1.6522,5.81038 -4.222656,7.98047 a 1.0001,1.0001 0 0 0 -0.318359,1.02539 c 0.173006,0.64562 -0.582031,1.49024 -0.582032,1.49024 a 1.0001,1.0001 0 0 0 0.457032,1.69922 c 0.474086,0.11111 0.975456,0.20396 1.492187,0.28711 0.471421,0.62589 0.989578,1.23483 1.583985,1.61718 0.251362,-0.23292 0.502608,-0.48382 0.748046,-0.77539 0.585325,-0.69524 0.777318,-1.77754 0.916016,-2.83203 3.545767,-2.96534 5.189462,-6.11457 5.384766,-9.25781 0.196528,-3.16294 -0.995243,-6.17347 -2.615235,-9.05078 -2.24828,-4.01542 -5.724869,-5.96091 -9.177734,-7.07031 z"
           transform="matrix(0.26458333,0,0,0.26458333,0,284.3)"
           id="path2117"
           inkscape:connector-curvature="0"
           inkscape:export-xdpi="826.16193"
           inkscape:export-ydpi="826.16193" />
        <path
           style="color:#000000;font-style:normal;font-variant:normal;font-weight:normal;font-stretch:normal;font-size:medium;line-height:normal;font-family:sans-serif;font-variant-ligatures:normal;font-variant-position:normal;font-variant-caps:normal;font-variant-numeric:normal;font-variant-alternates:normal;font-feature-settings:normal;text-indent:0;text-align:start;text-decoration:none;text-decoration-line:none;text-decoration-style:solid;text-decoration-color:#000000;letter-spacing:normal;word-spacing:normal;text-transform:none;writing-mode:lr-tb;direction:ltr;text-orientation:mixed;dominant-baseline:auto;baseline-shift:baseline;text-anchor:start;white-space:normal;shape-padding:0;clip-rule:nonzero;display:inline;overflow:visible;visibility:visible;opacity:1;isolation:auto;mix-blend-mode:normal;color-interpolation:sRGB;color-interpolation-filters:linearRGB;solid-color:#000000;solid-opacity:1;vector-effect:none;fill:#b557a1;fill-opacity:1;fill-rule:nonzero;stroke:none;stroke-width:0.42684126;stroke-linecap:round;stroke-linejoin:round;stroke-miterlimit:4;stroke-dasharray:none;stroke-dashoffset:0;stroke-opacity:1;color-rendering:auto;image-rendering:auto;shape-rendering:auto;text-rendering:auto;enable-background:accumulate"
           d="m 1.7246094,330.67773 a 0.26460978,0.26460978 0 0 0 -0.1171875,0.0352 l -0.94140628,0.54297 h -0.001953 a 0.26460978,0.26460978 0 0 0 -0.1484375,0.13672 0.26460978,0.26460978 0 0 0 -0.001953,0.002 0.26460978,0.26460978 0 0 0 -0.007813,0.0234 0.26460978,0.26460978 0 0 0 -0.005859,0.0195 0.26460978,0.26460978 0 0 0 -0.001953,0.006 0.26460978,0.26460978 0 0 0 0,0.002 0.26460978,0.26460978 0 0 0 -0.005859,0.0234 0.26460978,0.26460978 0 0 0 0,0.002 0.26460978,0.26460978 0 0 0 -0.001953,0.0234 0.26460978,0.26460978 0 0 0 0,0.004 0.26460978,0.26460978 0 0 0 0.0585937,0.17773 l 0.56445308,0.98047 c 0.087862,0.15218 0.083034,0.4111 -0.019531,0.7832 -0.10256535,0.37211 -0.28964798,0.83028 -0.45703125,1.33789 -0.33476653,1.01522 -0.59200032,2.27063 0.12304687,3.50196 0.39074708,0.67679 0.86130298,1.27844 1.52929688,1.60937 0.6633933,0.32865 1.5024794,0.35594 2.5332031,-0.0351 0.2317105,0.0953 0.4770541,0.18312 0.6894532,0.14257 0.2887832,-0.0551 0.5258313,-0.1679 0.6582031,-0.24414 0.132609,-0.0766 0.3488787,-0.22665 0.5410156,-0.44922 0.1411822,-0.16354 0.1872486,-0.41798 0.2207031,-0.66601 0.8552505,-0.69749 1.2517204,-1.4384 1.2988282,-2.17774 0.047403,-0.74396 -0.2401121,-1.45211 -0.6308594,-2.1289 -0.7088205,-1.23493 -1.9241096,-1.63973 -2.9707032,-1.85742 -0.5232967,-0.10885 -1.0131829,-0.17622 -1.3867187,-0.27344 -0.3735358,-0.0972 -0.5996399,-0.22087 -0.6875,-0.37305 L 1.96875,330.81055 a 0.26460978,0.26460978 0 0 0 -0.2441406,-0.13282 z"
           id="path2114"
           inkscape:connector-curvature="0"
           inkscape:export-xdpi="826.16193"
           inkscape:export-ydpi="826.16193" />
        <circle
           style="opacity:1;vector-effect:none;fill:#853e6e;fill-opacity:1;stroke:none;stroke-width:0.42684123;stroke-linecap:round;stroke-linejoin:round;stroke-miterlimit:4;stroke-dasharray:none;stroke-dashoffset:0;stroke-opacity:1"
           id="path2137"
           cx="4.1329184"
           cy="336.28671"
           r="2.7152309"
           inkscape:export-xdpi="826.16193"
           inkscape:export-ydpi="826.16193" />
        <path
           style="color:#000000;font-style:normal;font-variant:normal;font-weight:normal;font-stretch:normal;font-size:medium;line-height:normal;font-family:sans-serif;font-variant-ligatures:normal;font-variant-position:normal;font-variant-caps:normal;font-variant-numeric:normal;font-variant-alternates:normal;font-feature-settings:normal;text-indent:0;text-align:start;text-decoration:none;text-decoration-line:none;text-decoration-style:solid;text-decoration-color:#000000;letter-spacing:normal;word-spacing:normal;text-transform:none;writing-mode:lr-tb;direction:ltr;text-orientation:mixed;dominant-baseline:auto;baseline-shift:baseline;text-anchor:start;white-space:normal;shape-padding:0;clip-rule:nonzero;display:inline;overflow:visible;visibility:visible;opacity:1;isolation:auto;mix-blend-mode:normal;color-interpolation:sRGB;color-interpolation-filters:linearRGB;solid-color:#000000;solid-opacity:1;vector-effect:none;fill:#853e6e;fill-opacity:1;fill-rule:nonzero;stroke:none;stroke-width:1.61325836;stroke-linecap:round;stroke-linejoin:round;stroke-miterlimit:4;stroke-dasharray:none;stroke-dashoffset:0;stroke-opacity:1;color-rendering:auto;image-rendering:auto;shape-rendering:auto;text-rendering:auto;enable-background:accumulate"
           d="m 28.544922,169.75 c -0.555322,-0.002 -1.00603,0.44858 -1.003906,1.00391 v 4 c -0.0021,-0.55533 0.448584,-1.00603 1.003906,-1.00391 1.314744,0 1.61914,0.46046 1.61914,1.7793 -3e-6,0.74948 0.565263,1.66719 1.689454,2.77539 1.124186,1.10819 2.705404,2.34049 4.326172,3.78711 3.241536,2.89315 6.688568,6.76926 6.673828,12.53515 0,3.17413 -0.434998,6.24105 -2.103516,8.74805 -1.656556,2.48897 -4.534161,4.27893 -8.947266,4.99609 -0.611395,0.82277 -1.315705,1.61177 -2.15625,1.9043 -0.270338,0.0941 -0.535176,0.17044 -0.792968,0.23242 0.809215,0.19465 1.531352,0.24767 1.996093,0.24805 0.0026,10e-6 0.0052,10e-6 0.0078,0 0.614521,0 1.670492,-0.0911 2.789062,-0.48047 0.840545,-0.29253 1.544855,-1.08153 2.15625,-1.9043 4.413103,-0.71716 7.29071,-2.50712 8.947266,-4.99609 1.668518,-2.507 2.103516,-5.57392 2.103516,-8.74805 0.01474,-5.76589 -3.43229,-9.642 -6.673828,-12.53515 -1.620768,-1.44662 -3.201987,-2.67892 -4.326172,-3.78711 -1.124191,-1.1082 -1.689457,-2.02591 -1.689454,-2.77539 v -0.77539 -4 c 0,-0.59338 -0.408598,-1.00391 -1.003893,-1.00391 h -4 z"
           transform="matrix(0.26458333,0,0,0.26458333,0,284.3)"
           id="path2096"
           inkscape:connector-curvature="0"
           sodipodi:nodetypes="cccccccccccccccccccccccccc"
           inkscape:export-xdpi="826.16193"
           inkscape:export-ydpi="826.16193" />
        <circle
           r="1.6550577"
           cy="336.28671"
           cx="4.1329184"
           id="circle2139"
           style="opacity:1;vector-effect:none;fill:#b94e96;fill-opacity:1;stroke:none;stroke-width:0.42684123;stroke-linecap:round;stroke-linejoin:round;stroke-miterlimit:4;stroke-dasharray:none;stroke-dashoffset:0;stroke-opacity:1"
           inkscape:export-xdpi="826.16193"
           inkscape:export-ydpi="826.16193" />
        <circle
           style="opacity:1;vector-effect:none;fill:#853e6e;fill-opacity:1;stroke:none;stroke-width:0.42684123;stroke-linecap:round;stroke-linejoin:round;stroke-miterlimit:4;stroke-dasharray:none;stroke-dashoffset:0;stroke-opacity:1"
           id="circle2141"
           cx="4.1329184"
           cy="336.28671"
           r="0.5506568"
           inkscape:export-xdpi="826.16193"
           inkscape:export-ydpi="826.16193" />
      </g>
      <path
         inkscape:export-ydpi="826.16193"
         inkscape:export-xdpi="826.16193"
         inkscape:connector-curvature="0"
         id="path1556"
         d="m 10.215305,283.42556 c -0.2226191,0 -0.3007561,0.135 -0.3007561,0.30438 v 1.22473 c -1.1e-6,0.22378 -0.197131,0.50574 -0.566374,0.84749 -0.343726,0.31814 -0.8062388,0.67634 -1.2567711,1.10226 -0.2818688,-0.0926 -0.564121,-0.16326 -0.8350906,-0.21963 -0.5232969,-0.10884 -1.012943,-0.17614 -1.3864791,-0.27336 -0.3735359,-0.0972 -0.5994359,-0.22093 -0.6872959,-0.37311 l -0.5860111,-1.01596 c -0.04971,-0.0869 -0.144478,-0.13827 -0.24443,-0.1328 -0.04128,0.002 -0.08101,0.0149 -0.116788,0.0356 l -0.941546,0.5426 c -0.188944,0.10909 -0.210988,0.25788 -0.117305,0.42013 l 0.564307,0.98082 c 0.08786,0.15218 0.08344,0.4108 -0.01912,0.7829 -0.102567,0.37211 -0.289954,0.83029 -0.457338,1.3379 -0.334766,1.01522 -0.592057,2.27079 0.12299,3.50212 0.390748,0.67678 0.86163,1.27827 1.529624,1.6092 0.6633933,0.32865 1.5024553,0.3559 2.5331775,-0.0351 0.2317113,0.0953 0.4769655,0.18318 0.6893645,0.14263 0.2887829,-0.0551 0.5259856,-0.16767 0.6583577,-0.24392 0.113951,-0.0658 0.2887491,-0.18958 0.457853,-0.36328 0.07667,0.0152 0.1513329,0.0321 0.2315099,0.045 0.1617562,0.21477 0.3435831,0.42497 0.5643073,0.50177 0.295942,0.10299 0.57631,0.12693 0.738456,0.12713 h 0.0016 c 0.162592,0 0.442501,-0.0241 0.738456,-0.12713 0.222394,-0.0774 0.408743,-0.28615 0.570508,-0.50384 1.167634,-0.18975 1.928484,-0.66386 2.366781,-1.3224 0.441462,-0.66331 0.557072,-1.47425 0.557072,-2.31407 0.0039,-1.52556 -0.908126,-2.55111 -1.765783,-3.31659 -0.428817,-0.38275 -0.84718,-0.7088 -1.144621,-1.00201 -0.297442,-0.29321 -0.447003,-0.53601 -0.447002,-0.73432 v -1.26349 c 5.56e-4,-0.14697 -0.118679,-0.26621 -0.265616,-0.26565 z m 0.228927,0.52917 h 0.692981 v 0.99994 c -2e-6,0.43327 0.270285,0.78094 0.603581,1.10949 0.333296,0.32856 0.754781,0.6538 1.166337,1.02113 0.823112,0.73465 1.590835,1.60367 1.5875,2.92023 -3e-6,8e-4 -3e-6,0.001 0,0.002 -10e-7,0.79038 -0.113422,1.49034 -0.466638,2.02106 -0.133058,0.19992 -0.30035,0.38131 -0.515214,0.53847 0.05841,-0.31003 0.09807,-0.6513 0.126607,-0.99787 0.05,-0.6071 0.06395,-1.20603 0.0646,-1.56218 0.0023,-1.3437 -0.48508,-2.3061 -1.002007,-3.04322 -0.05054,-0.074 -0.135245,-0.11732 -0.224792,-0.11524 -0.211075,0.007 -0.329211,0.24604 -0.206706,0.41806 0.483919,0.69005 0.905913,1.52035 0.903821,2.73833 -6.35e-4,0.34391 -0.01374,0.93521 -0.06201,1.52136 -0.04384,0.53231 -0.125588,1.05876 -0.228927,1.37149 -0.161253,0.0617 -0.336057,0.11685 -0.532784,0.16175 0.03785,-0.39226 0.04579,-0.88174 0.04651,-1.37666 9.79e-4,-0.67237 -0.01581,-1.33965 -0.0155,-1.67587 0.0012,-1.47621 -0.29996,-2.47562 -0.589628,-3.24425 -0.0403,-0.11125 -0.149658,-0.18203 -0.267684,-0.17363 -0.178103,0.0131 -0.29262,0.19518 -0.22686,0.36122 0.279387,0.74135 0.556195,1.65122 0.555005,3.05666 -3.18e-4,0.35473 0.01647,1.0112 0.0155,1.6738 -9.53e-4,0.65168 -0.02603,1.31402 -0.08733,1.63453 -0.05974,0.15064 -0.215659,0.26016 -0.424265,0.33279 -0.100167,0.0349 -0.20653,0.0576 -0.302823,0.0729 v -1.30023 c 0.0017,-0.14924 -0.120524,-0.27047 -0.26975,-0.26769 -0.145405,0.003 -0.261067,0.12227 -0.259416,0.26769 v 1.29863 c -0.09554,-0.0152 -0.200554,-0.037 -0.299207,-0.0713 -0.214961,-0.0748 -0.3761524,-0.18785 -0.4314985,-0.34571 -0.0323,-0.092 -0.1124008,-0.15915 -0.2087729,-0.17415 -0.025641,-0.004 -0.04778,-0.01 -0.07286,-0.0139 0.01928,-0.0867 0.03545,-0.17548 0.04754,-0.2651 0.8552514,-0.69749 1.2515214,-1.43883 1.2986294,-2.17816 0.0474,-0.74396 -0.240222,-1.45177 -0.630969,-2.12856 -0.08659,-0.15086 -0.181159,-0.28925 -0.2816373,-0.41651 0.1021773,-0.43511 0.2283353,-0.8153 0.3560513,-1.1622 0.06953,-0.18011 -0.07088,-0.37142 -0.26355,-0.35915 -0.1056654,0.007 -0.1972184,0.0759 -0.2325442,0.1757 -0.09935,0.26986 -0.200887,0.56762 -0.2919722,0.89658 -0.2717128,-0.23484 -0.5696749,-0.41286 -0.8774661,-0.55552 0.3709522,-0.33318 0.7522433,-0.63496 1.0717703,-0.93069 0.3994862,-0.36975 0.7363882,-0.74719 0.7363892,-1.2361 z m -6.1737829,1.56011 0.4526851,0.78703 c 0.2053369,0.35566 0.591633,0.51124 1.013892,0.62115 0.4222581,0.1099 0.9116859,0.17699 1.412317,0.28112 1.0012598,0.20826 2.0141798,0.5478 2.6189607,1.60146 0.2817221,0.60214 0.5887831,1.26002 0.5622401,1.83244 -0.03728,0.58502 -0.328341,1.17417 -1.1167279,1.8123 -0.07614,0.0614 -0.1124921,0.15973 -0.09405,0.25579 0.02728,0.14466 -0.0453,0.30539 -0.1813841,0.46302 -0.13608,0.15763 -0.3244929,0.28963 -0.404626,0.3359 -0.08051,0.0464 -0.289474,0.1444 -0.4940271,0.18345 -0.2045538,0.039 -0.3803208,0.022 -0.4919599,-0.0739 -0.07375,-0.0637 -0.1766599,-0.0818 -0.2676837,-0.047 -0.946835,0.3637 -1.603793,0.32073 -2.129069,0.0605 -0.525276,-0.26023 -0.9388021,-0.76852 -1.3048301,-1.4025 -0.56767,-0.98323 -0.365449,-2.1821 -0.07803,-3.0701 0.160133,-0.48561 0.3470771,-0.94258 0.463021,-1.36322 0.1159431,-0.42064 0.174331,-0.83187 -0.03101,-1.18752 l -0.4532031,-0.78703 z m 6.5132969,1.21078 c -0.14618,0.003 -0.262158,0.12357 -0.259416,0.26975 v 1.45676 c 0,0.35286 0.529167,0.35286 0.529167,0 v -1.45676 c 0.0028,-0.15001 -0.119742,-0.27257 -0.269751,-0.26975 z m -4.0478148,0.84388 c -0.4748519,0.018 -0.9538509,0.14923 -1.395264,0.40411 -1.4125201,0.81552 -1.9243771,2.60171 -1.127062,3.9827 0.398658,0.6905 1.049792,1.14913 1.775602,1.3317 a 0.26460979,0.26460979 0 1 0 0.128674,-0.5116 c -0.595354,-0.14975 -1.122526,-0.52293 -1.447457,-1.08572 -0.6498561,-1.12559 -0.23856,-2.58134 0.9337931,-3.2582 1.1723529,-0.67686 2.6393447,-0.30496 3.2892048,0.82062 0.3249329,0.5628 0.3845118,1.20632 0.2165249,1.79679 a 0.26460979,0.26460979 0 1 0 0.5079788,0.1447 C 9.8227229,290.47475 9.75097,289.68006 9.3523091,288.98956 8.95365,288.29907 8.3034179,287.84043 7.576707,287.65734 c -0.2725169,-0.0687 -0.5558648,-0.0987 -0.8407758,-0.0878 z m 0.4950611,1.00769 a 0.26460979,0.26460979 0 0 0 -0.04858,0.52348 c 0.3551428,0.0893 0.6660097,0.30947 0.8593788,0.6444 0.3867388,0.66985 0.1437569,1.53597 -0.558623,1.94149 -0.7023777,0.40552 -1.5743817,0.18358 -1.9611198,-0.48628 -0.193369,-0.33492 -0.226816,-0.71592 -0.126607,-1.06815 a 0.26508776,0.26508776 0 1 0 -0.510047,-0.1447 c -0.137018,0.48162 -0.08933,1.01378 0.177767,1.4764 0.5341938,0.92527 1.7430791,1.22579 2.6856236,0.68161 0.9425451,-0.54418 1.2860901,-1.74073 0.7518921,-2.66598 -0.2670971,-0.46263 -0.703994,-0.77031 -1.1895907,-0.89245 a 0.26460979,0.26460979 0 0 0 -0.0801,-0.01 z m -0.3922252,1.15341 c -0.1442368,-0.009 -0.2926559,0.0239 -0.425813,0.10077 -0.355074,0.205 -0.490547,0.66401 -0.2852539,1.01958 a 0.26515121,0.26515121 0 1 0 0.4588859,-0.26562 c -0.05783,-0.10017 -0.02499,-0.2308 0.08992,-0.29714 0.1148932,-0.0663 0.2449981,-0.0298 0.3028251,0.0703 A 0.26460979,0.26460979 0 1 0 7.43615,290.09494 c -0.1283108,-0.2222 -0.3569838,-0.34997 -0.5973787,-0.36432 z"
         style="color:#000000;font-style:normal;font-variant:normal;font-weight:normal;font-stretch:normal;font-size:medium;line-height:normal;font-family:sans-serif;font-variant-ligatures:normal;font-variant-position:normal;font-variant-caps:normal;font-variant-numeric:normal;font-variant-alternates:normal;font-feature-settings:normal;text-indent:0;text-align:start;text-decoration:none;text-decoration-line:none;text-decoration-style:solid;text-decoration-color:#000000;letter-spacing:normal;word-spacing:normal;text-transform:none;writing-mode:lr-tb;direction:ltr;text-orientation:mixed;dominant-baseline:auto;baseline-shift:baseline;text-anchor:start;white-space:normal;shape-padding:0;clip-rule:nonzero;display:inline;overflow:visible;visibility:visible;opacity:1;isolation:auto;mix-blend-mode:normal;color-interpolation:sRGB;color-interpolation-filters:linearRGB;solid-color:#000000;solid-opacity:1;vector-effect:none;fill:#1a1a1a;fill-opacity:1;fill-rule:nonzero;stroke:none;stroke-width:0.42684126;stroke-linecap:round;stroke-linejoin:round;stroke-miterlimit:4;stroke-dasharray:none;stroke-dashoffset:0;stroke-opacity:1;color-rendering:auto;image-rendering:auto;shape-rendering:auto;text-rendering:auto;enable-background:accumulate" />
    </g>
  </g>
</svg>
