<?xml version="1.0" encoding="utf-8"?>
<!-- Generator: Adobe Illustrator 27.5.0, SVG Export Plug-In . SVG Version: 6.00 Build 0)  -->
<svg version="1.1" id="Capa_1" xmlns="http://www.w3.org/2000/svg" xmlns:xlink="http://www.w3.org/1999/xlink" x="0px" y="0px"
	 viewBox="0 0 2122 2122" style="enable-background:new 0 0 2122 2122;" xml:space="preserve">
<circle style="fill:#A91917;" cx="1060.659" cy="1060.66" r="881.937"/>
<ellipse transform="matrix(0.7071 -0.7071 0.7071 0.7071 -439.3399 1060.6603)" style="fill:#841813;" cx="1060.66" cy="1060.66" rx="816.642" ry="816.643"/>
<ellipse transform="matrix(0.7071 -0.7071 0.7071 0.7071 -439.3405 1060.6604)" style="fill:#E45243;" cx="1060.66" cy="1060.661" rx="759.274" ry="759.275"/>
<path style="fill:#B41D1F;" d="M1714.349,954.995c-1.16-66.172-12.789-131.542-34.407-193.41
	c-21.598-61.82-71.63-125.854-152.862-110.4c-41.885,7.966-78.932,31.961-113.705,56.258
	c-62.41,43.612-122.358,90.293-180.045,139.25c20.131-57.438,40.818-114.659,62.115-171.626
	c21.277-56.908,40.643-120.704,5.54-176.153c-28.414-44.884-79.966-68.404-127.016-83.639
	c-70.523-22.836-144.175-34.797-217.919-35.391c-73.68-0.594-160.516,26.748-175.03,114.47
	c-7.479,45.233,3.849,91.386,16.365,135.352c20.867,73.293,45.342,145.402,72.692,216.257
	c-52.932-31.038-105.521-62.579-157.69-94.706c-47.908-29.501-102.436-58.672-159.42-38.876
	c-46.124,16.022-77.057,56.292-99.62,94.246c-33.812,56.891-58.3,118.609-72.448,182.599
	c-14.139,63.939-5.262,144.713,71.956,174.292c39.814,15.25,83.941,14.327,126.294,11.944c63.54-3.57,126.745-9.859,189.47-18.422
	c-44.638,30.901-89.52,61.392-134.683,91.391c-46.865,31.128-96.204,68.407-102.119,128.438
	c-4.79,48.592,18.806,93.559,43.81,129.951c37.476,54.546,83.245,102.648,135.41,142.319c52.121,39.639,129.183,65.44,188.404,7.729
	c30.534-29.756,48.195-70.207,63.786-109.656c30.616-77.466,56.799-156.36,79.23-235.982c2.218-7.873,4.614-15.872,7.072-23.959
	c5.781,12.411,11.443,24.456,16.246,35.905c29.734,70.889,58.543,142.097,86.314,213.627
	c20.365,52.443,46.207,108.629,103.576,127.267c46.441,15.086,95.42,1.676,136.321-14.95
	c61.311-24.921,118.1-59.318,168.029-101.773c49.885-42.419,91.596-112.16,47.917-182.372
	c-22.524-36.202-58.251-62.115-93.447-85.798c-69.105-46.504-140.555-88.981-213.525-127.953
	c-5.443-2.908-10.936-5.931-16.471-9.015c2.785-0.127,5.572-0.255,8.281-0.333c76.838-2.2,153.647-3.42,230.377-3.559
	c56.258-0.102,117.978-3.968,156.033-50.772C1709.988,1049.662,1715.124,999.141,1714.349,954.995z"/>
<path style="fill:#F4995C;" d="M1547.509,862.676c-24.37-50.753-75.347-95.34-128.234-82.088
	c-29.583,7.413-55.683,24.784-81.929,40.741c-47.542,28.906-97.12,53.834-145.043,82.009c-10.533,6.193-22.29,12.59-34.266,19.525
	c9.734-48.056,16.156-89.215,20.229-106.373c14.699-61.941,25.554-136.097-16.199-182.307
	c-40.254-44.541-116.541-53.51-171.332-41.552c-52.629,11.486-106.173,53.247-107.065,113.72
	c-0.497,33.827,9.013,66.791,17.189,99.503c11.644,46.604,20.726,93.846,30.904,140.816c-69.325-47.949-157.7-87.9-182.62-102.524
	c-51.757-30.375-115.61-59.9-169.018-29.135c-51.478,29.657-80.979,104.716-85.568,163.223
	c-4.405,56.2,18.246,120.887,72.551,136.899c30.377,8.957,62.786,7.557,94.591,7.447c57.613-0.2,114.996,4.071,172.57,4.697
	c7.532,0.08,15.503,0.326,23.741,0.563c-56.823,41.6-108.029,89.517-126.869,103.839c-46.86,35.632-97.34,82.611-88.336,142.962
	c8.677,58.173,67.279,113.559,119.639,139.958c50.304,25.357,118.275,29.279,152.804-14.131
	c19.313-24.28,29.798-54.346,41.257-83.371c20.76-52.58,45.559-103.247,67.06-155.479c8.639-20.969,20.132-45.023,28.375-69.983
	c18.792,88.689,94.353,207.422,109.705,239.251c25.135,52.112,60.555,109.825,120.989,112.153
	c58.251,2.244,123.883-44.565,160.107-90.636c34.792-44.256,52.341-109.634,17.159-151.179
	c-19.678-23.24-46.757-38.957-72.633-55.43c-46.864-29.839-91.064-63.259-137.442-93.761
	c-22.007-14.473-47.391-33.623-74.694-46.977c86.3,12.034,197.69,0.2,228.697,0.429c57.934,0.426,125.457-5.91,154.28-59.125
	C1585.896,995.066,1572.873,915.507,1547.509,862.676z"/>
<path style="fill:#841813;" d="M1039.319,557.646c41.969,31.915,34.826-63.827,28.521-80.365
	c-4.429-11.61-12.541-22.918-24.511-26.246c-3.845-1.07-8.161-1.201-11.654,0.726c-3.61,1.988-5.788,5.812-7.425,9.59
	c-9.534,22.005-6.504,47.472,0.292,70.468C1027.407,541.497,1031.285,551.536,1039.319,557.646z"/>
<path style="fill:#841813;" d="M915.836,559.478c4.989,5.79,13.306,15.303,21.939,13.844c11.114-1.88,13.413-16.421,13.418-25.364
	c0.034-36.292-15.191-72.355-41.213-97.651c-3.454-3.355-7.196-6.594-11.698-8.292c-4.507-1.698-9.949-1.6-13.759,1.347
	c-4.166,3.225-5.437,8.933-5.764,14.192c-1.023,16.514,4.463,32.663,9.997,48.253C895.436,524.621,902.613,544.143,915.836,559.478z
	"/>
<path style="fill:#841813;" d="M1171.933,593.826c12.083,0,21.861-16.056,28.102-24.602c17.009-23.291,29.062-51.34,27.703-80.645
	c-0.18-3.879-0.711-8.032-3.308-10.921c-2.968-3.303-8.029-4.059-12.317-2.897c-4.288,1.164-7.947,3.927-11.313,6.824
	c-23.868,20.543-38.373,50.417-44.877,81.23C1153.317,575.168,1154.919,593.826,1171.933,593.826z"/>
<path style="fill:#B41D1F;" d="M598.243,657.541c4.76-5.084,8.575-11.196,14.309-15.148c14.889-10.255,34.899-2.126,52.969-1.557
	c23.201,0.733,47.376-14.848,51.708-37.654c4.424-23.294-11.396-47.221-5.822-70.268c4.36-18.032,20.999-31.393,24.429-49.625
	c3.995-21.245-14.431-43.461-36.024-44.482c-10.1-0.475-20.127,2.987-28.619,8.472c-26.797,17.311-36.994,51.488-59.176,74.416
	c-16.399,16.945-38.641,27.006-56.38,42.536c-22.787,19.949-40.355,56.97-32.005,87.927
	C531.812,682.498,581.176,675.765,598.243,657.541z"/>
<path style="fill:#B41D1F;" d="M1705.467,1127.263c-5.788,11.572-6.816,24.867-10.436,37.286
	c-11.43,39.187-116.604,154.49-52.02,190.053c9.321,5.13,20.541,5.403,31.114,4.227c29.607-3.294,60.175-19.861,69.515-48.154
	c9.018-27.318-3.64-56.516-6.392-85.152c-1.628-16.994,0.322-34.324,5.695-50.529c3.898-11.744,9.613-23.135,10.466-35.479
	c0.853-12.343-4.994-26.416-16.872-29.878C1724.117,1106.018,1711.255,1115.694,1705.467,1127.263z"/>
<path style="fill:#B41D1F;" d="M1587.654,1164.03c-6.626,3.461-12.477,8.623-19.703,10.553c-7.513,2.007-15.512,0.239-23.24,1.115
	c-9.759,1.104-19.186,6.972-23.215,15.925c-9.846,21.866,18.193,40.563,37.622,36.653c23.82-4.791,49.788-21.819,53.637-47.198
	c0.901-5.961,0.356-12.789-4.078-16.877C1603.182,1159.134,1594.285,1160.571,1587.654,1164.03z"/>
<path style="fill:#B41D1F;" d="M738.535,708.011c-1.564,3.491-4.175,6.507-5.257,10.178c-1.798,6.131,1.179,12.88,5.856,17.233
	c14.826,13.8,33.389,3.871,44.872-9.732c3.328-3.941,6.164-8.789,5.774-13.934c-0.482-6.431-5.686-11.308-9.354-16.614
	c-4.561-6.589-6.943-14.39-10.105-21.752c-3.162-7.362-7.484-14.709-14.451-18.665c-1.998-1.132-4.229-1.968-6.529-1.942
	c-4.609,0.051-8.585,3.617-10.548,7.788C731.919,675.134,745.127,693.319,738.535,708.011z"/>
<path style="fill:#B41D1F;" d="M483.369,1277.109c8.482-12.996,15.932-28.075,13.613-43.422
	c-2.319-15.35-18.587-29.145-33.043-23.491c-3.254,1.272-6.153,3.389-9.491,4.414c-12.205,3.746-23.493-7.961-29.593-19.177
	c-6.095-11.213-12.127-24.623-24.448-27.958c-12.224-3.313-25.33,6.288-28.945,18.427c-3.62,12.139,0.458,25.457,7.42,36.034
	c6.967,10.58,16.59,19.069,25.496,28.073c8.906,9.004,17.403,19.006,21.193,31.089c4.468,14.256,1.885,29.688-1.418,44.258
	c-3.308,14.567-7.337,29.381-5.642,44.224c3.045,26.687,41.013,56.626,61.949,27.432c8.477-11.822,8.589-27.788,5.471-41.995
	c-3.113-14.209-9.067-27.71-11.698-42.015c-1.135-6.141-1.632-12.545-0.019-18.58C475.905,1288.086,479.783,1282.6,483.369,1277.109
	z"/>
<path style="fill:#B41D1F;" d="M1123.402,1645.698c9.915-10.546,15.137-27.213,7.839-39.71c-6.134-10.506-19.478-15.089-31.6-14.022
	c-12.117,1.067-23.294,6.775-33.866,12.794c-11.62,6.619-23.264,14.034-30.996,24.943c-8.268,11.664-11.869,27.006-23.245,35.657
	c-12.76,9.7-30.475,7.581-46.48,8.402c-14.387,0.738-28.974,4.419-40.609,12.911c-11.64,8.489-19.922,22.292-19.464,36.692
	c1.203,37.98,48.478,46.95,77.184,49.764c21.841,2.141,47.586-1.142,59.171-19.781c10.222-16.446,5.267-38.597,13.754-56.005
	c6.339-13.008,19.23-21.437,32.005-28.233C1099.874,1662.312,1113.487,1656.241,1123.402,1645.698z"/>
<path style="fill:#B41D1F;" d="M1023.821,1554.322c34.163,17.004,63.513-22.473,52.01-55.152
	c-2.587-7.347-8.448-13.835-16.015-15.691c-6.455-1.583-13.685,0.497-18.314,5.272c-6.777,6.994-6.718,16.874-10.299,25.362
	c-3.971,9.401-12.458,11.802-17.578,19.33C1007.076,1543.065,1014.681,1549.774,1023.821,1554.322z"/>
<path style="fill:#B41D1F;" d="M1362.7,611.524c-8.054,19.525-2.037,42.47,19.435,48.085
	c42.928,11.228,106.158-31.196,117.978-71.481c9.11-31.035-4.862-64.022-21.807-91.571c-6.046-9.834-12.77-19.671-22.387-26.056
	c-9.618-6.385-22.821-8.611-32.702-2.641c-13.968,8.441-15.308,28.154-12.56,44.239c2.748,16.083,7.829,33.22,1.194,48.127
	C1401.76,582.903,1372.303,588.24,1362.7,611.524z"/>
<path style="fill:#F9C29D;" d="M1261.994,931.757c-24.775,6.892-45.238,23.951-67.942,36.02
	c-24.94,13.259-53.023,20.55-81.267,21.099c-5.417,0.105-11.376-0.237-15.357-3.92c-3.98-3.683-11.347-7.571-6.129-9.055
	c7.527-39.235,15.059-78.472,22.592-117.708c4.141-21.566,8.171-44.512,0.146-64.95c-5.486-13.961-16.171-25.333-28.102-34.424
	c-27.644-21.062-68.444-30.49-96.799-10.39c-28.253,20.029-33.003,60.648-26.08,94.582c6.923,33.932,22.724,65.932,26.09,100.402
	c1.627,16.711-1.364,36.47-15.922,44.838c-9.851,5.661-22.173,4.307-33.198,1.557c-36.356-9.065-68.107-30.96-103.172-44.168
	c-35.064-13.206-78.767-15.898-106.182,9.647c-8.507,7.927-14.753,18.002-19.732,28.512c-7.332,15.466-12.034,33.885-4.921,49.452
	c8.59,18.809,31.04,26.675,51.523,29.513c42.67,5.908,86.065-1.52,129.081,0.702c11.357,0.587,23.98,2.531,30.962,11.508
	c3.634,4.67,5.169,10.646,5.822,16.524c3.279,29.466-13.525,57.63-33.885,79.176c-20.366,21.547-44.887,39.157-63.128,62.534
	c-18.236,23.376-29.549,55.474-18.149,82.843c7.201,17.279,23.289,30.565,41.613,34.37c21.227,4.407,43.669-3.661,60.443-17.393
	c16.775-13.729,28.585-32.577,38.256-51.978c20.774-41.658,32.94-87.094,52.326-129.415c5.262-11.491,12.073-23.688,23.912-28.105
	c15.123-5.64,31.849,3.993,42.606,16.029c19.177,21.462,27.503,50.156,37.433,77.172c9.934,27.013,23.444,54.923,48.307,69.43
	c17.481,10.197,39.444,12.355,58.572,5.754c19.698-6.799,36.79-24.658,36.984-45.493c0.219-23.613-19.63-41.922-37.856-56.935
	l-47.415-39.055c-11.912-9.815-23.985-19.798-32.784-32.48c-8.794-12.682-14.051-28.635-10.694-43.7
	c27.474-27.233,62.889-42.707,101.569-42.173c26.022,0.361,53.875,7.313,76.881-4.862c17.491-9.259,28.322-28.514,30.641-48.17
	c0.868-7.369,0.648-14.989-1.798-21.993C1318.754,932.778,1286.763,924.864,1261.994,931.757z"/>
<path style="fill:#EF8A4A;" d="M1467.503,849.37c-17.125-16.025-45.184-22.612-64.341-9.079
	c-5.837,4.119-10.475,9.764-16.332,13.849c-11.254,7.849-25.632,10.319-30.373,24.884c-4.546,13.963,4.536,22.153,11.152,33.481
	c17.49,29.947,22.84,67.189,15.269,100.967c-2.271,10.134-5.622,20.943-1.754,30.585c6.889,17.186,30.465,18.595,48.789,15.944
	c15.649-2.263,31.59-5.549,44.896-14.087c20.692-13.277,32.141-37.847,34.621-62.305c2.485-24.458-2.918-49.021-9.773-72.628
	C1493.116,888.454,1484.634,865.397,1467.503,849.37z"/>
<path style="fill:#EF8A4A;" d="M682.944,884.432c-7.04-16.429-27.362-24.231-44.97-21.147c-17.603,3.087-32.55,14.855-44.297,28.331
	c-34.119,39.145-46.002,97.825-30.012,147.279c13.072,40.414,88.277,50.697,106.387,7.922c6.685-15.79,1.159-33.702-1.379-50.663
	c-2.27-15.194-2.017-30.911,2.173-45.693C677.108,928.384,691.987,905.524,682.944,884.432z"/>
<path style="fill:#EF8A4A;" d="M951.383,739.151c10.119-3.187,21.013-18.716,32.156-23.642
	c23.571-10.422,51.849-11.131,75.162,0.402c10.543,5.213,20.204,12.609,31.639,15.349c14.826,3.552,31.444-1.885,41.306-13.513
	c9.861-11.629,12.506-28.911,6.582-42.957c-7.274-17.243-25.159-27.513-42.845-33.637c-27.093-9.384-56.828-11.89-84.696-5.138
	c-27.864,6.753-53.661,23.079-70.075,46.59c-6.582,9.425-11.747,20.387-11.586,31.883
	C929.205,726.93,937.711,743.456,951.383,739.151z"/>
<path style="fill:#EF8A4A;" d="M1216.279,1403.898c-4.439,6.411-6.465,14.304-6.573,22.102
	c-0.409,28.816,25.266,53.223,53.457,59.206c28.19,5.981,57.559-2.813,83.352-15.669c32.628-16.261,63.01-40.592,77.213-74.163
	c14.207-33.571,8.156-77.274-20.77-99.457c-32.18-24.675-44.526,13.474-61.861,32.461c-23.298,25.515-55.313,42.058-87.469,53.542
	C1239.782,1386.865,1224.654,1391.815,1216.279,1403.898z"/>
<path style="fill:#EF8A4A;" d="M894.764,1406.385c-18.602-9.671-41.018-7.25-61.359-12.321
	c-21.939-5.469-41.418-20.171-52.692-39.769c-4.901-8.519-8.77-18.407-17.155-23.527c-5.315-3.245-11.796-4.071-18.017-3.779
	c-30.348,1.423-56.234,31.472-53.145,61.696c1.725,16.908,11.011,32.119,21.642,45.381c16.244,20.271,36.497,37.725,60.234,48.273
	c47.673,21.184,116.326,9.873,132.35-47.503c1.647-5.893,2.266-12.443-0.414-17.944
	C903.899,1412.156,899.436,1408.817,894.764,1406.385z"/>
<path style="fill:#841813;" d="M793.2,1557.167c-16.935,17.649-42.47,117.169,4.648,82.214c16.74-12.419,26.295-32.387,28.95-52.609
	C830.009,1562.336,820.732,1528.47,793.2,1557.167z"/>
<path style="fill:#841813;" d="M715.188,1501.535c-6.402-1.374-12.745,2.36-17.851,6.463c-15.606,12.55-26.987,30.26-31.917,49.669
	c-3.045,11.995-2.914,25.313,7.903,33.298c7.985,5.898,15.975,5.473,23.328-0.875c15.674-13.535,28.112-42.38,30.685-62.382
	c0.672-5.255,0.745-10.729-1.092-15.698C724.406,1507.041,720.367,1502.646,715.188,1501.535z"/>
<path style="fill:#841813;" d="M642.107,1415.964c-1.457-0.714-3.167-0.643-4.775-0.426c-14.83,2.007-25.973,14.777-32.57,28.209
	c-6.66,13.571-23.177,62.468,4,63.81c27.25,1.347,36.964-38.826,40.087-58.945c1.559-10.032,1.764-20.984-3.688-29.55
	C644.372,1417.823,643.427,1416.612,642.107,1415.964z"/>
<path style="fill:#841813;" d="M1329.214,1550.473c-5.72-1.079-11.678,1.464-15.907,5.464c-4.229,4.002-6.977,9.303-9.262,14.658
	c-6.09,14.27-9.437,29.705-9.808,45.217c-0.17,7.309,0.395,14.941,4.054,21.272c3.654,6.334,11.147,10.948,18.251,9.225
	c7.615-1.844,17.155-7.425,20.673-14.487c8.872-17.824,11.951-38.48,8.653-58.117
	C1344.186,1563.678,1339.202,1552.353,1329.214,1550.473z"/>
<path style="fill:#841813;" d="M1438.851,1499.333c-7.766-3.447-16.731,1.944-22.08,8.546
	c-11.381,14.046-13.919,33.172-14.568,51.24c-0.487,13.535-0.137,29.61,9.72,40.168c8.146,8.721,18.494,9.15,26.305-0.107
	c17.413-20.626,17.505-59.349,11.142-83.834C1447.708,1508.941,1444.897,1502.017,1438.851,1499.333z"/>
<path style="fill:#841813;" d="M1504.249,1506.58c5.895,12.441,18.587,21.661,32.326,13.817
	c9.432-5.388,10.382-17.427,12.584-27.232c7.211-32.127,3.562-66.393-11.751-95.708c-2.305-4.414-5.345-9.089-10.173-10.297
	c-5.852-1.467-11.557,2.816-15.449,7.42c-15.805,18.689-18.071,45.23-16.614,69.664
	C1496.035,1478.741,1498.027,1493.455,1504.249,1506.58z"/>
<path style="fill:#841813;" d="M1637.014,999.244c-13.291,4.234-24.994,12.434-35.449,21.673
	c-5.34,4.724-10.616,10.076-12.575,16.931c-5.847,20.502,20.902,23.201,34.675,23.264c18.709,0.085,37.53-6.183,52-18.139
	c4.813-3.978,9.247-8.643,11.771-14.353c2.529-5.713,2.919-12.614-0.117-18.073c-2.144-3.856-5.778-6.689-9.656-8.794
	C1665.403,995.095,1650.309,995.007,1637.014,999.244z"/>
<path style="fill:#841813;" d="M1586.091,920.966c15.303,17.523,53.505-4.557,67.089-14.857
	c11.825-8.965,21.637-20.831,26.256-35.086c1.057-3.252,1.837-6.77,0.926-10.066c-1.481-5.349-6.962-8.582-12.297-10.122
	c-15.864-4.572-32.862,1.067-47.6,8.512C1602.729,868.306,1565.642,897.563,1586.091,920.966z"/>
<path style="fill:#841813;" d="M1551.898,798.679c35.746,14.249,62.265-24.19,71.644-53.108c2.031-6.258,3.523-13.028,1.759-19.367
	c-2.558-9.169-11.844-15.469-21.33-16.29c-9.486-0.821-18.904,3.084-26.456,8.882
	C1559.879,732.335,1514.948,783.95,1551.898,798.679z"/>
<path style="fill:#841813;" d="M481.147,1035.175c-4.95-3.803-11.118-5.642-17.238-6.882c-17.223-3.488-35.284-2.774-52.175,2.066
	c-5.408,1.549-11.61,4.643-12.03,10.256c-2.86,38.467,52.677,38.453,74.597,27.522c6.952-3.467,13.812-9.123,14.66-16.848
	C489.644,1045.085,486.097,1038.976,481.147,1035.175z"/>
<path style="fill:#841813;" d="M480.221,933.421c-17.184-7.291-37.384-7.133-54.446,0.429c-4.39,1.944-8.677,4.441-11.639,8.216
	c-2.957,3.774-4.37,9.038-2.592,13.493c5.832,14.614,34.753,13.735,47.001,12.071c11.863-1.61,23.766-7.696,29.311-18.305
	c1.091-2.095,1.939-4.441,1.627-6.782C488.884,938.04,484.401,935.195,480.221,933.421z"/>
<path style="fill:#841813;" d="M508.859,873.09c4.853-1.562,9.935-3.908,12.268-8.441c2.802-5.445,0.502-12.446-3.936-16.663
	c-4.439-4.217-10.529-6.185-16.502-7.537c-7.825-1.771-15.84-2.701-23.864-2.77c-15.931-0.141-45.632,13.05-26.036,31.756
	C463.651,881.714,493.858,877.918,508.859,873.09z"/>
<path style="fill:#F18781;" d="M1755.825,1062.634c21.52,2.629,30.412-29.215,31.766-44.563
	c1.671-19.013-1.345-40.248-15.649-52.887c-2.197-1.944-4.906-3.72-7.829-3.452c-5.276,0.482-7.615,6.853-8.166,12.119
	c-1.452,13.84,1.052,28.319-3.703,41.398C1747.62,1027.972,1728.96,1059.355,1755.825,1062.634z"/>
<path style="fill:#F18781;" d="M432.538,780.174c4.667-6.278,4.458-17.176,7.829-24.358c5.554-11.825,15.074-20.056,25.009-28.265
	c12.935-10.692,26.748-23.123,28.687-39.793c0.516-4.49,0.058-9.247-2.28-13.113c-3.941-6.521-12.531-9.091-20.044-7.83
	c-7.513,1.265-14.12,5.655-20.039,10.453c-23.693,19.208-40.307,46.962-46.046,76.92
	C402.311,771.614,416.791,801.336,432.538,780.174z"/>
<path style="fill:#F18781;" d="M1191.592,1671.225c-14.071-4.214-30.631-5.461-42.222,3.557
	c-11.941,9.291-14.777,26.39-25.115,37.442c-16.638,17.788-64.205,31.396-21.213,56.375c13.817,8.029,21.198,0.818,32.18-8.507
	c12.882-10.943,23.897-15.693,41.106-16.762c11.766-0.731,23.834-0.626,34.913-4.638c11.084-4.012,21.228-13.362,22.027-25.12
	c0.346-5.152-1.121-10.307-3.483-14.897C1222.398,1684.351,1207.027,1675.849,1191.592,1671.225z"/>
<path style="fill:#F18781;" d="M577.137,1242.427c15.746-5.91,35.323-5.763,48.643-17.001c2.149-1.815,4.146-4.066,4.653-6.831
	c0.872-4.78-3.201-9.34-7.844-10.767c-4.648-1.428-9.646-0.536-14.426,0.363c-7.22,1.362-14.446,2.726-21.671,4.088
	c-17.588,3.318-44.131,6.129-56.156,21.242c-8.77,11.025-5.432,19.128,7.932,19.839
	C551.831,1254.084,564.888,1247.024,577.137,1242.427z"/>
<path style="fill:#F18781;" d="M1326.744,442.867c-0.107,20.994-14.417,35.079,4.224,53.941
	c11.766,11.905,27.751,12.348,39.849,0.794c30.246-28.894,9.101-79.452-19.869-100.02c-5.72-4.061-12.185-7.52-19.191-7.949
	c-7.002-0.426-14.582,2.826-17.549,9.184c-3.338,7.142-0.122,15.566,3.815,22.397
	C1321.954,428.048,1326.788,434.984,1326.744,442.867z"/>
</svg>
